<?xml version="1.0" encoding="UTF-8"?>
<svg width="59px" height="59px" viewBox="0 0 59 59" version="1.1" xmlns="http://www.w3.org/2000/svg" xmlns:xlink="http://www.w3.org/1999/xlink">
    <!-- Generator: Sketch 48.1 (47250) - http://www.bohemiancoding.com/sketch -->
    <title>tpb-logo</title>
    <desc>Created with Sketch.</desc>
    <defs></defs>
    <g id="Page-1" stroke="none" stroke-width="1" fill="none" fill-rule="evenodd">
        <g id="tpb-logo">
            <circle id="Oval-2" fill="#000000" cx="29.5" cy="29.5" r="29.5"></circle>
            <path d="M17.6787109,20.6044922 L17.6787109,24.2080078 L14.8369141,24.2080078 L14.8369141,30.9316406 C14.8369141,31.4101586 14.9296866,31.7690418 15.1152344,32.0083008 C15.3007822,32.2475598 15.6474584,32.3671875 16.1552734,32.3671875 C16.5751974,32.3671875 17.0830048,32.2597667 17.6787109,32.0449219 L17.6787109,35.4580078 C16.360345,35.9755885 15.120123,36.234375 13.9580078,36.234375 C12.6201105,36.234375 11.6167026,35.8950229 10.9477539,35.2163086 C10.2788052,34.5375943 9.94433594,33.5781312 9.94433594,32.3378906 L9.94433594,24.2080078 L7.99609375,24.2080078 L7.99609375,20.6044922 L9.94433594,20.6044922 L9.94433594,17.2167969 L14.8369141,13.7011719 L14.8369141,20.6044922 L17.6787109,20.6044922 Z M35.6005859,28.4707031 C35.6005859,29.9746169 35.3320339,31.324701 34.7949219,32.5209961 C34.2578098,33.7172911 33.4838918,34.6572231 32.4731445,35.3408203 C31.4623973,36.0244175 30.2978582,36.3662109 28.9794922,36.3662109 C27.3583903,36.3662109 25.8593819,35.7265689 24.4824219,34.4472656 L24.4824219,39.3837891 L27.5292969,39.3837891 L27.5292969,42.9287109 L16.9824219,42.9287109 L16.9824219,39.3837891 L19.5898438,39.3837891 L19.5898438,24.2080078 L17.3925781,24.2080078 L17.3925781,20.6044922 L24.4824219,20.6044922 L24.4824219,22.5234375 C25.8398505,21.1074148 27.35839,20.3994141 29.0380859,20.3994141 C30.3955146,20.3994141 31.5698193,20.7534144 32.5610352,21.4614258 C33.552251,22.1694371 34.306638,23.133783 34.8242188,24.3544922 C35.3417995,25.5752014 35.6005859,26.947258 35.6005859,28.4707031 Z M27.5585938,32.484375 C28.5253955,32.484375 29.2675755,32.1254919 29.7851562,31.4077148 C30.302737,30.6899378 30.5615234,29.6718816 30.5615234,28.3535156 C30.5615234,27.0937437 30.2978542,26.1123082 29.7705078,25.4091797 C29.2431614,24.7060512 28.4863331,24.3544922 27.5,24.3544922 C26.5624953,24.3544922 25.8129911,24.7206995 25.2514648,25.453125 C24.6899386,26.1855505 24.4091797,27.1718688 24.4091797,28.4121094 C24.4091797,29.5742246 24.6997041,30.5434531 25.2807617,31.3198242 C25.8618193,32.0961953 26.6210891,32.484375 27.5585938,32.484375 Z M45.6523438,27.2529297 C46.9707097,27.2529297 48.1401316,27.6166956 49.1606445,28.3442383 C50.1811574,29.071781 50.9672824,30.0458923 51.519043,31.2666016 C52.0708035,32.4873108 52.3466797,33.8105397 52.3466797,35.2363281 C52.3466797,36.6718822 52.0756863,38.0048767 51.5336914,39.2353516 C50.9916965,40.4658265 50.2251026,41.4399378 49.2338867,42.1577148 C48.2426708,42.8754919 47.0976627,43.234375 45.7988281,43.234375 C44.1777263,43.234375 42.6787178,42.5654364 41.3017578,41.2275391 L41.3017578,42.9248657 L26.5318604,42.9283752 L26.5285034,39.3814392 L36.4058228,39.3814392 L36.4091797,17.4550781 L33.7431641,17.4550781 L38.7431641,13.9248047 L41.3017578,13.9248047 L41.3017578,29.3769531 C42.5419984,27.9609304 43.9921792,27.2529297 45.6523438,27.2529297 Z M44.3046875,39.4257812 C45.2421922,39.4257812 45.9770481,39.0376015 46.5092773,38.2612305 C47.0415066,37.4848594 47.3076172,36.4521549 47.3076172,35.1630859 C47.3076172,33.8837827 47.0415066,32.9096713 46.5092773,32.2407227 C45.9770481,31.571774 45.2519577,31.2373047 44.3339844,31.2373047 C43.3769483,31.2373047 42.6274441,31.6181603 42.0854492,32.3798828 C41.5434543,33.1416054 41.2724609,34.1523375 41.2724609,35.4121094 C41.2724609,36.5937559 41.5483371,37.5581017 42.1000977,38.3051758 C42.6518582,39.0522498 43.3867142,39.4257812 44.3046875,39.4257812 Z" id="tpb" fill="#FFFFFF"></path>
        </g>
    </g>
</svg>